<svg xmlns="http://www.w3.org/2000/svg" width="168" height="50" fill="none"><g clip-path="url(#a)"><path fill="#151515" d="M163.8 0H4.2C1.88 0 0 1.865 0 4.167v41.666C0 48.135 1.88 50 4.2 50h159.6c2.32 0 4.2-1.865 4.2-4.167V4.167C168 1.865 166.12 0 163.8 0"/><path fill="#fff" fill-rule="evenodd" d="M35.374 14.758c3.561 0 5.838 3.43 5.838 3.43s-3.472 1.879-3.472 5.954c0 4.837 4.364 6.246 4.364 6.246S38.66 38.52 34.79 38.52c-2.176 0-2.321-1.246-5.212-1.246-2.512 0-3.357 1.245-5.27 1.245-3.651 0-8.366-7.931-8.366-14.383 0-6.698 4.774-9.381 7.767-9.381 2.628 0 3.724 1.541 5.838 1.541 1.782 0 3.185-1.541 5.827-1.541zm-.613-6.833c.522 3.286-2.47 7.347-6.048 7.215-.525-4.176 3.332-6.99 6.045-7.21z" clip-rule="evenodd"/><mask id="b" width="101" height="37" x="52" y="8" maskUnits="userSpaceOnUse" style="mask-type:luminance"><path fill="#fff" d="M52.73 8.126h100.212V44.51H52.73V8.126"/></mask><g mask="url(#b)"><path fill="#fff" fill-rule="evenodd" d="m61.961 32.603-1.414-4.383q-.225-.669-.843-3.16h-.05q-.25 1.071-.795 3.162l-1.39 4.385h4.494zm4.89 7h-2.856l-1.562-4.93H57l-1.491 4.93h-2.78l5.386-16.788h3.325l5.411 16.79z" clip-rule="evenodd"/></g><mask id="c" width="101" height="37" x="52" y="8" maskUnits="userSpaceOnUse" style="mask-type:luminance"><path fill="#fff" d="M52.73 8.126h100.212V44.51H52.73"/></mask><g mask="url(#c)"><path fill="#fff" fill-rule="evenodd" d="M77.944 33.5q0-1.767-.793-2.914-.87-1.194-2.334-1.194-.99.002-1.799.66a3.06 3.06 0 0 0-1.054 1.731 3.5 3.5 0 0 0-.126.82v2.02c0 .88.266 1.624.807 2.231q.806.91 2.095.91 1.513-.002 2.358-1.17.844-1.17.844-3.09m2.73-.097q0 3.087-1.67 4.88-1.499 1.594-3.718 1.594-2.394 0-3.444-1.718v6.352h-2.674V31.482q-.001-1.943-.098-3.982h2.356l.15 1.922h.05c.896-1.447 2.25-2.17 4.07-2.17q2.134 0 3.56 1.694 1.425 1.697 1.425 4.461" clip-rule="evenodd"/></g><mask id="d" width="101" height="37" x="52" y="8" maskUnits="userSpaceOnUse" style="mask-type:luminance"><path fill="#fff" d="M52.73 8.126h100.212V44.51H52.73"/></mask><g mask="url(#d)"><path fill="#fff" fill-rule="evenodd" d="M91.818 33.5q0-1.767-.798-2.914-.867-1.194-2.33-1.194-.992.002-1.8.66a3.05 3.05 0 0 0-1.053 1.731 3.5 3.5 0 0 0-.126.82v2.02q0 1.32.805 2.231c.537.604 1.237.91 2.1.91 1.008 0 1.796-.392 2.356-1.17q.842-1.17.844-3.09m2.73-.097q-.002 3.087-1.673 4.88-1.5 1.594-3.718 1.594-2.4 0-3.444-1.718v6.352h-2.683V31.482q0-1.943-.098-3.982h2.357l.15 1.922h.05q1.34-2.17 4.071-2.17 2.133 0 3.562 1.694c.947 1.132 1.426 2.618 1.426 4.461" clip-rule="evenodd"/></g><path fill="#fff" fill-rule="evenodd" d="M110.06 34.895c0 1.43-.5 2.591-1.489 3.488q-1.633 1.466-4.557 1.467-2.698-.001-4.331-1.046l.62-2.243a7.46 7.46 0 0 0 3.874 1.046q1.516.001 2.357-.683.847-.687.847-1.83-.001-1.02-.695-1.718c-.465-.463-1.232-.897-2.308-1.294q-4.396-1.645-4.396-4.808c0-1.378.518-2.504 1.55-3.39q1.55-1.317 4.108-1.319 2.289 0 3.801.798l-.672 2.194q-1.422-.775-3.215-.774-1.422 0-2.22.7c-.445.413-.672.918-.672 1.52q.001.995.77 1.643.673.597 2.432 1.294 2.161.876 3.178 2.042 1.023 1.171 1.022 2.913m8.881-5.375h-2.954v5.875q0 2.244 1.564 2.243.722 0 1.19-.125l.076 2.041q-.79.299-2.082.299-1.589 0-2.482-.972-.896-.973-.896-3.264V29.51h-1.759v-2.014h1.76v-2.217l2.632-.797v3.014h2.954v2.022zm10.523 3.995q0-1.662-.717-2.855-.846-1.442-2.408-1.442c-1.074 0-1.898.48-2.457 1.442q-.722 1.194-.721 2.905-.002 1.666.721 2.859c.58.96 1.386 1.441 2.436 1.441q1.533-.001 2.408-1.466.737-1.219.738-2.884m2.779-.06q-.001 2.79-1.591 4.583-1.664 1.843-4.418 1.843-2.657 0-4.234-1.767-1.572-1.77-1.573-4.458.001-2.814 1.624-4.607 1.627-1.794 4.382-1.795 2.654.002 4.267 1.768 1.542 1.717 1.54 4.43m8.716-3.585a4.6 4.6 0 0 0-.845-.075q-1.416 0-2.184 1.075-.67.946-.669 2.389v6.354h-2.68v-8.296a88 88 0 0 0-.078-3.811h2.333l.098 2.317h.075c.284-.795.728-1.437 1.339-1.917a3.23 3.23 0 0 1 1.938-.649q.368 0 .666.049l.003 2.567zm9.428 2.416c.02-.798-.157-1.486-.518-2.069q-.7-1.12-2.136-1.12-1.318-.002-2.134 1.096-.669.871-.792 2.09zm2.556.698q0 .723-.098 1.222h-8.038c.028 1.194.42 2.108 1.164 2.739q1.017.842 2.63.843 1.786.002 3.253-.57l.42 1.866c-1.141.5-2.492.75-4.043.75q-2.805 0-4.407-1.656c-1.064-1.104-1.6-2.589-1.6-4.447q-.001-2.736 1.489-4.556 1.565-1.941 4.218-1.941 2.609 0 3.948 1.941 1.062 1.54 1.064 3.806zM58.267 13.367l-.696-2.153c-.073-.222-.207-.736-.415-1.556h-.025a52 52 0 0 1-.392 1.556l-.682 2.153zm2.4 3.437h-1.4l-.77-2.423h-2.67l-.731 2.425h-1.37l2.646-8.25h1.636zm6.623-5.947-2.247 5.947h-1.281l-2.17-5.947h1.414l1.013 3.146c.171.528.317 1.028.426 1.504h.038c.098-.428.243-.93.425-1.504l.998-3.147h1.38zm4.592 2.986c-1.462 0-2.194.356-2.194 1.199 0 .625.378.93.903.93.672 0 1.292-.514 1.292-1.21v-.917zm.186 2.963-.098-.685h-.038c-.402.551-.987.82-1.732.82-1.064 0-1.82-.746-1.82-1.75 0-1.47 1.269-2.228 3.464-2.228v-.111c0-.784-.415-1.175-1.232-1.175a2.76 2.76 0 0 0-1.549.441l-.268-.87c.55-.342 1.232-.513 2.038-.513 1.548 0 2.33.82 2.33 2.46v2.19c0 .603.025 1.07.084 1.422h-1.183z" clip-rule="evenodd"/><mask id="e" width="101" height="37" x="52" y="8" maskUnits="userSpaceOnUse" style="mask-type:luminance"><path fill="#fff" d="M52.73 8.126h100.212V44.51H52.73V8.126"/></mask><g mask="url(#e)"><path fill="#fff" fill-rule="evenodd" d="M76.784 16.807h-1.316v-5.95h1.316zm-.683-6.93a.785.785 0 0 1-.728-.493.8.8 0 0 1-.053-.303c0-.45.354-.782.806-.782.451 0 .817.333.804.785 0 .477-.34.795-.829.795zm4.34 6.93h-1.316v-8.68h1.316zm5.418-2.964c-1.466 0-2.198.356-2.198 1.199 0 .625.378.93.903.93.668 0 1.291-.513 1.291-1.21v-.917zm.182 2.963-.098-.685h-.036c-.403.551-.989.82-1.733.82-1.06 0-1.818-.746-1.818-1.75 0-1.47 1.269-2.228 3.465-2.228v-.111c0-.784-.415-1.175-1.232-1.175-.588 0-1.099.147-1.548.441l-.266-.87c.549-.34 1.232-.514 2.037-.514 1.548 0 2.331.819 2.331 2.463v2.188c0 .601.024 1.067.084 1.42zm6.169-5.032c-.76 0-1.454.66-1.454 1.579v1.042c0 .82.623 1.493 1.428 1.493.989 0 1.575-.809 1.575-2.093 0-1.2-.611-2.021-1.55-2.021m.265 5.166c-.84 0-1.463-.355-1.866-1.052h-.025l-.077.916h-1.12c.033-.475.046-1.014.046-1.601v-7.08h1.319v3.6h.024c.389-.66 1.022-.99 1.89-.99 1.428 0 2.427 1.226 2.427 3.013 0 1.847-1.11 3.194-2.622 3.194m5.894-.133h-1.316v-8.68h1.316zm5.961-3.6c0-.917-.462-1.567-1.305-1.567-.758 0-1.352.662-1.442 1.567zm1.208.942h-3.955c.028 1.128.77 1.764 1.867 1.764.588 0 1.122-.1 1.596-.282l.205.916c-.56.246-1.218.368-1.988.368-1.852 0-2.949-1.175-2.949-3 0-1.822 1.122-3.194 2.804-3.194 1.508 0 2.464 1.128 2.464 2.83.003.228-.01.437-.046.596zm8.036-2.449c-.952 0-1.563.893-1.563 2.142 0 1.222.625 2.117 1.554 2.117.924 0 1.547-.956 1.547-2.145 0-1.208-.611-2.115-1.536-2.115m-.053 5.241c-1.732 0-2.856-1.297-2.856-3.06 0-1.835 1.148-3.147 2.956-3.147 1.704 0 2.854 1.237 2.854 3.053 0 1.861-1.183 3.157-2.954 3.157m10.038-.135h-1.316v-3.416c0-1.052-.404-1.58-1.197-1.58-.78 0-1.319.674-1.319 1.459v3.537h-1.316v-4.25c0-.524-.014-1.088-.049-1.7h1.159l.062.917h.036c.35-.639 1.074-1.042 1.876-1.042 1.246 0 2.062.955 2.062 2.509v3.564zm8.617-4.958h-1.449v2.89q0 1.102.765 1.102c.233 0 .429-.025.588-.061l.035 1.004q-.386.146-1.022.147c-1.04 0-1.659-.575-1.659-2.083v-3h-.863v-.992h.863v-1.09l1.293-.393v1.483h1.449v.993m6.976 4.958h-1.319V13.42c0-1.067-.403-1.606-1.196-1.606-.683 0-1.316.465-1.316 1.408v3.59H134V8.126h1.318V11.7h.028c.412-.648 1.008-.966 1.778-.966 1.258 0 2.025.981 2.025 2.536zm5.523-3.597c0-.916-.462-1.57-1.305-1.57-.756 0-1.351.663-1.438 1.57h2.744zm1.208.94h-3.954c.026 1.128.768 1.764 1.865 1.764.588 0 1.123-.1 1.596-.281l.207.916c-.56.246-1.218.368-1.988.368-1.855 0-2.951-1.175-2.951-3 0-1.822 1.12-3.194 2.804-3.194 1.512 0 2.464 1.128 2.464 2.829.006.23-.007.437-.042.597z" clip-rule="evenodd"/></g></g><defs><clipPath id="a"><path fill="#fff" d="M0 0h168v50H0z"/></clipPath></defs></svg>