<svg xmlns="http://www.w3.org/2000/svg" width="168" height="50" fill="none"><g clip-path="url(#a)"><path fill="#151515" d="M163.8 0H4.2C1.88 0 0 1.865 0 4.167v41.666C0 48.135 1.88 50 4.2 50h159.6c2.32 0 4.2-1.865 4.2-4.167V4.167C168 1.865 166.12 0 163.8 0"/><path fill="url(#b)" d="M34.944 20.293 16.286 10.071c-.529-.288-1.016-.357-1.411-.232L30.156 25.06l4.788-4.77"/><path fill="url(#c)" fill-rule="evenodd" d="m34.968 29.858 6.37-3.489c1.29-.71 1.29-1.866 0-2.575l-6.394-3.5-4.788 4.77z" clip-rule="evenodd"/><path fill="url(#d)" d="M14.875 9.839c-.57.175-.938.75-.938 1.611l.006 27.258c0 .856.355 1.42.907 1.609l15.306-15.253z"/><path fill="url(#e)" d="M14.85 40.32c.398.133.896.069 1.436-.226l18.68-10.236-4.81-4.791z"/><path fill="#E7E7E7" fill-rule="evenodd" d="M57.36 8.44c1.177 0 1.992.525 2.52 1.063l-.825.92c-.426-.409-.892-.69-1.68-.69-1.501 0-2.51 1.152-2.51 3.032 0 1.909.905 3.061 2.6 3.061.465 0 .93-.127 1.203-.372V13.65h-1.593v-1.214h2.936v3.686c-.581.538-1.577.997-2.727.997-2.251 0-3.958-1.534-3.958-4.312 0-2.74 1.758-4.366 4.032-4.366m8.215 4.824c0-.997-.424-1.597-1.29-1.597-.751 0-1.398.548-1.527 1.597zm-1.33-2.736c1.72 0 2.625 1.226 2.625 2.98 0 .282-.028.537-.064.69h-4.035c.126 1.14.854 1.781 1.876 1.781.54 0 1.005-.166 1.47-.46l.504.92c-.606.396-1.368.678-2.17.678-1.76 0-3.13-1.216-3.13-3.29.002-2.05 1.437-3.3 2.924-3.3m4.074 1.317h-.903v-1.1l.983-.064.182-1.717h1.24v1.717h1.616v1.164h-1.616v2.994c0 .742.283 1.1.892 1.1.22 0 .479-.064.658-.139l.26 1.086c-.35.116-.79.23-1.293.23-1.474 0-2.016-.921-2.016-2.277v-2.994z" clip-rule="evenodd"/><mask id="f" width="106" height="39" x="51" y="7" maskUnits="userSpaceOnUse" style="mask-type:luminance"><path fill="#E7E7E7" d="M51.503 7.903h104.919v37.222H51.503z"/></mask><g mask="url(#f)"><path fill="#E7E7E7" fill-rule="evenodd" d="M75.42 10.68h1.488v6.284H75.42zm-.167-1.933c0-.5.388-.844.917-.844.532 0 .917.347.917.844 0 .486-.387.834-.919.834s-.918-.348-.918-.834zm3.777 3.098h-.906v-1.1l.984-.064.182-1.717h1.24v1.717h1.616v1.164h-1.615v2.994c0 .742.283 1.1.892 1.1.22 0 .478-.064.66-.139l.26 1.086c-.35.115-.79.23-1.294.23-1.474 0-2.016-.921-2.016-2.277v-2.995zm9.7 4.069c.932 0 1.5-.833 1.5-2.086 0-1.267-.568-2.097-1.5-2.097s-1.485.83-1.485 2.097c0 1.254.553 2.086 1.484 2.086m0-5.389c1.59 0 3.026 1.204 3.026 3.303 0 2.086-1.436 3.291-3.027 3.291-1.578 0-3.01-1.205-3.01-3.291 0-2.097 1.432-3.302 3.01-3.302m4.504.155h1.228l.103.844h.05c.57-.55 1.219-1 2.084-1 1.358 0 1.952.91 1.952 2.497v3.942h-1.487v-3.75c0-1.038-.294-1.42-.994-1.42-.557 0-.919.267-1.45.778v4.392h-1.485V10.68z" clip-rule="evenodd"/></g><mask id="g" width="106" height="39" x="51" y="7" maskUnits="userSpaceOnUse" style="mask-type:luminance"><path fill="#fff" d="M51.503 7.903h104.919v37.222H51.503z"/></mask><g mask="url(#g)"><path fill="#fff" fill-rule="evenodd" d="M127.498 29.753q-1.584 0-2.292.87-.708.867-.728 2.765v.347q0 2.154.728 3.086.724.93 2.331.93c.893 0 1.596-.36 2.1-1.076q.761-1.073.76-2.961.001-1.914-.761-2.937-.757-1.026-2.139-1.026m.228 9.296a4.5 4.5 0 0 1-1.845-.368 3.44 3.44 0 0 1-1.4-1.135h-.117q.115.897.115 1.7v4.213h-1.565V28.625h1.274l.216 1.4h.075c.403-.561.871-.962 1.409-1.214a4.3 4.3 0 0 1 1.838-.372q2.057 0 3.178 1.389 1.113 1.393 1.114 3.907 0 2.52-1.134 3.916-1.139 1.396-3.158 1.396m7.921-.186h-1.568V24.328h1.568zm5.468-1.091q1.465 0 2.296-.792.837-.798.836-2.227v-.92l-1.568.063q-1.868.068-2.691.575-.826.511-.826 1.584c0 .56.168.986.514 1.278q.514.44 1.439.438m3.537 1.093-.308-1.456h-.077q-.776.964-1.546 1.301-.768.34-1.918.34-1.539 0-2.412-.783-.873-.782-.874-2.232-.001-3.101 5.012-3.25l1.755-.055v-.639q0-1.201-.525-1.778-.526-.573-1.676-.573c-.861 0-1.834.264-2.922.784l-.483-1.187a7.6 7.6 0 0 1 1.674-.645 7.4 7.4 0 0 1 1.829-.232q1.848 0 2.74.813.89.812.891 2.604v6.986h-1.162zm2.072-10.238h1.68l2.265 5.839c.494 1.333.805 2.294.924 2.886h.074c.084-.32.252-.861.518-1.632q.389-1.154 2.558-7.094h1.68L151.98 40.28q-.663 1.729-1.546 2.452-.882.725-2.164.723-.719-.002-1.417-.16v-1.243q.52.116 1.162.114c1.074 0 1.841-.6 2.3-1.792l.58-1.458-4.172-10.296zm-48.925 6.389c.499-.495.542-1.175.542-1.562 0-1.542-.93-3.94-2.726-3.94-.562 0-1.169.28-1.514.707-.369.45-.476 1.028-.476 1.584 0 1.435.845 3.814 2.704 3.814a2.22 2.22 0 0 0 1.47-.603m-.625 4.07c-.173-.023-.28-.023-.496-.023-.196 0-1.365.042-2.272.347-.476.167-1.862.684-1.862 2.202s1.495 2.61 3.808 2.61c2.077 0 3.18-.982 3.18-2.31 0-1.095-.713-1.671-2.357-2.827zm1.535-9.508c.5.406 1.536 1.264 1.536 2.89 0 1.585-.91 2.335-1.816 3.041-.28.275-.607.58-.607 1.051 0 .47.326.727.564.92l.78.597c.952.796 1.816 1.522 1.816 3 0 2.014-1.972 4.049-5.69 4.049-3.136 0-4.648-1.48-4.648-3.064 0-.772.385-1.861 1.666-2.614 1.338-.814 3.157-.92 4.13-.986-.305-.383-.65-.792-.65-1.452 0-.368.108-.583.216-.84a8 8 0 0 1-.693.042c-2.29 0-3.588-1.692-3.588-3.361 0-.984.453-2.077 1.383-2.868 1.232-1.006 2.702-1.178 3.874-1.178h4.456l-1.386.77H98.71zm-10.92 7.434c.518-.683.649-1.542.649-2.375 0-1.88-.903-5.472-3.584-5.472-.712 0-1.424.277-1.942.727-.84.75-.994 1.69-.994 2.611 0 2.116 1.058 5.6 3.672 5.6.84 0 1.708-.407 2.2-1.09m-2.697 1.733c-3.433 0-5.268-2.652-5.268-5.048 0-2.799 2.31-5.194 5.593-5.194 3.174 0 5.162 2.458 5.162 5.047 0 2.522-1.966 5.194-5.488 5.194m-9.007-1.733c.518-.683.647-1.542.647-2.375 0-1.88-.907-5.472-3.584-5.472-.714 0-1.428.277-1.943.727-.846.75-.994 1.69-.994 2.611 0 2.116 1.057 5.6 3.67 5.6.844 0 1.706-.407 2.204-1.09m-2.699 1.733c-3.435 0-5.272-2.652-5.272-5.048 0-2.799 2.313-5.194 5.596-5.194 3.175 0 5.161 2.458 5.161 5.047 0 2.522-1.964 5.194-5.483 5.194m-6.925-.336-3.102.708c-1.264.195-2.394.364-3.584.364-5.992 0-8.274-4.36-8.274-7.777 0-4.171 3.234-8.04 8.772-8.04 1.123.003 2.24.154 3.321.45 1.63.453 2.39 1.012 2.866 1.334l-1.802 1.697-.759.172.543-.86c-.739-.71-2.086-2.02-4.648-2.02-3.43 0-6.013 2.583-6.013 6.343 0 4.039 2.95 7.844 7.684 7.844 1.391 0 2.107-.282 2.758-.539v-3.458l-3.276.17 1.736-.927h4.603l-.566.542c-.154.128-.175.17-.217.343-.022.191-.045.816-.045 1.028v2.625z" clip-rule="evenodd"/></g><mask id="h" width="106" height="39" x="51" y="7" maskUnits="userSpaceOnUse" style="mask-type:luminance"><path fill="#fff" d="M51.503 7.903h104.919v37.222H51.503z"/></mask><g mask="url(#h)"><path fill="#fff" fill-rule="evenodd" d="M105.571 37.787c-.717-.065-.868-.191-.868-1.033V24.59l.014-.139c.087-.752.303-.88.98-1.27h-3.108l-1.629.779h1.659v13.266c0 .43-.084.496-.586 1.14h3.843l.805-.469c-.369-.047-.739-.066-1.108-.111m6.806-6.165c.411-.147.625-.278.625-.574 0-.853-.97-1.836-2.135-1.836-.864 0-2.478.663-2.478 2.968 0 .361.042.746.066 1.13l3.92-1.69zm2.03 6.364c-.238.125-.476.277-.711.382-.714.323-1.447.407-2.096.407-.686 0-1.766-.045-2.865-.834-1.532-1.066-2.198-2.903-2.198-4.504 0-3.31 2.718-4.93 4.937-4.93.776 0 1.574.194 2.224.597 1.075.704 1.355 1.62 1.506 2.114l-5.065 2.027-1.662.13c.539 2.708 2.394 4.288 4.442 4.288 1.101 0 1.899-.384 2.632-.745l-1.142 1.07zm2.079-9.332v1.408h-.173v-1.408h-.471v-.146h1.116v.146zm1.939 1.408v-1.422h-.004l-.441 1.422h-.136l-.442-1.42h-.004v1.421h-.16v-1.555h.27l.401 1.258h.003l.394-1.257h.272v1.556h-.154z" clip-rule="evenodd"/></g></g><defs><linearGradient id="b" x1="400.501" x2="1017.43" y1="-527.48" y2="1554.25" gradientUnits="userSpaceOnUse"><stop stop-color="#19A3B4"/><stop offset=".348" stop-color="#5BC3AF"/><stop offset=".922" stop-color="#C9F7A6"/><stop offset="1" stop-color="#D7FEA5"/></linearGradient><linearGradient id="c" x1="-148.423" x2="561.636" y1="-1073.07" y2="1228.64" gradientUnits="userSpaceOnUse"><stop stop-color="#FC227C"/><stop offset="1" stop-color="#FEEB7B"/></linearGradient><linearGradient id="d" x1="470.518" x2="1511.72" y1="-441.659" y2="2260.26" gradientUnits="userSpaceOnUse"><stop stop-color="#0E4DA0"/><stop offset="1" stop-color="#6BFED4"/></linearGradient><linearGradient id="e" x1="2674.98" x2="738.66" y1="277.312" y2="2488.82" gradientUnits="userSpaceOnUse"><stop stop-color="#FC472E"/><stop offset=".003" stop-color="#FC472E"/><stop offset="1" stop-color="#893CD8"/></linearGradient><clipPath id="a"><path fill="#fff" d="M0 0h168v50H0z"/></clipPath></defs></svg>