<svg xmlns="http://www.w3.org/2000/svg" width="150" height="150" fill="none"><circle cx="75" cy="75" r="74.5" fill="#fff" stroke="#06F"/><path fill="#06F" stroke="#06F" d="M75.02 79.85c-2.888 0-4.212.203-7.265.589-1.547.195-2.916.469-4.031.815-1.103.342-2.01.772-2.584 1.308l-.001.002c-.453.428-.679.924-.646 1.449.032.505.297.943.63 1.288.66.683 1.738 1.163 2.689 1.266 1.682.187 5.022.12 11.221.12 5.581 0 8.846.053 10.67-.072v.026l.559-.067c.941-.111 1.983-.567 2.624-1.243.325-.343.576-.774.612-1.272.032-.448-.112-.887-.423-1.293l-.143-.172c-.245-.275-.597-.507-1.001-.71a10 10 0 0 0-1.473-.568c-1.126-.346-2.553-.64-4.161-.875-3.203-.466-4.392-.591-7.276-.591ZM55.2 72.896c-2.631-.756-3.653-1.103-5.407-.84h-.001c-.372.056-.683.178-.907.416-.22.232-.293.509-.336.712-.111.517-.125 1.026.062 1.859.172.776.723 1.261 1.36 1.539.626.273 1.374.367 2.073.367v.001c2.186.003 4.37-.122 6.54-.377h-.001c.486-.047.782-.42.883-.763s.055-.832-.35-1.125c-.78-.574-2.108-1.27-3.917-1.79zm45.062-.873c-1.388-.19-2.992.16-5.47.871-1.802.518-3.15 1.202-3.928 1.797v.001c-.38.292-.462.744-.387 1.093.069.324.323.736.807.786v.001c2.212.251 4.436.377 6.662.376.696 0 1.446-.093 2.074-.365.638-.277 1.192-.763 1.361-1.545h-.001a5.3 5.3 0 0 0 .068-1.943h-.002a1.3 1.3 0 0 0-.229-.578 1.1 1.1 0 0 0-.68-.448zM74.996 58.396c-2.39 0-5.122.162-7.632.504-2.496.341-4.822.867-6.367 1.618-1.126.546-1.98 1.455-2.673 2.462-.69 1.006-1.243 2.144-1.74 3.174l-.005.012c-.037.083-.077.16-.126.26a1.46 1.46 0 0 0 .1 1.446 1.522 1.522 0 0 0 1.292.665h.002c4.177-.11 12.907-.47 17.15-.47s12.971.351 17.142.461c.254.007.506-.05.732-.166.226-.115.42-.287.56-.498a1.46 1.46 0 0 0 .172-1.27l-.07-.176-.124-.26-.002-.004-.385-.789c-.399-.801-.839-1.63-1.356-2.384-.648-.945-1.44-1.803-2.463-2.357l-.208-.106c-1.546-.753-3.871-1.28-6.368-1.62a58.5 58.5 0 0 0-7.63-.503ZM48.49 91.583l-.438-.054a1.53 1.53 0 0 1-.77-.323 1.45 1.45 0 0 1-.467-.665c-.024-.07-.786-2.354-1.193-6.15-.191-1.802-.155-4.635.093-7.388.448-4.888 1.173-5.732 1.369-5.987.558-.725 1.481-1.221 2.597-1.81v.001a.95.95 0 0 0 .499-.683.9.9 0 0 0-.005-.328l-.027-.106-.04-.103a1 1 0 0 0-.186-.268l-.006-.006-.106-.116a1.397 1.397 0 0 1-.32-.999c.035-.367.21-.71.494-.961.25-.22.567-.354.903-.382l.144-.005h1.956l.193.012.118.014.111-.04a.3.3 0 0 1 .068-.016l.258-.035.118-.233.011-.018.005-.011c1.166-2.403 2.683-5.494 5.782-6.998 2.345-1.137 5.725-1.749 8.78-2.072a66 66 0 0 1 6.565-.353c.866 0 3.523.03 6.565.352 3.056.325 6.436.938 8.785 2.077 3.1 1.504 4.617 4.595 5.783 6.998l.104.215.233.053a1 1 0 0 1 .095.032l.123.051.131-.016.193-.012h1.952c.389-.004.763.136 1.048.387.249.219.414.51.474.824l.02.137a1.427 1.427 0 0 1-.42 1.124l-.004.004a1 1 0 0 0-.186.268l-.04.103a.93.93 0 0 0 .462 1.114c1.116.586 2.038 1.084 2.602 1.814v.001c.181.233.833.99 1.282 5.114l.087.87c.22 2.413.272 4.88.153 6.668l-.061.722c-.405 3.784-1.164 6.066-1.191 6.149-.088.26-.251.491-.47.667a1.53 1.53 0 0 1-.772.322l-.44.053v.458c0 .38-.156.747-.436 1.02-.28.274-.663.43-1.065.43h-7.001c-.402 0-.785-.156-1.065-.43a1.43 1.43 0 0 1-.435-1.02v-.491l-.491-.01c-.938-.016-1.613-.18-2.368-.368h-.001a21 21 0 0 0-3.594-.615h-.001a119 119 0 0 0-10.05-.477c-2.005 0-5.172.093-8.499.355l-1.427.122a21 21 0 0 0-3.145.503l-.442.11c-.787.199-1.484.372-2.492.372h-.5v.5c0 .38-.154.748-.434 1.021-.28.274-.664.429-1.066.429h-7c-.403 0-.786-.156-1.066-.429a1.43 1.43 0 0 1-.436-1.021z"/></svg>