<svg xmlns="http://www.w3.org/2000/svg" width="150" height="150" fill="none"><circle cx="75" cy="75" r="74.5" fill="#fff" stroke="#06F"/><path fill="#06F" stroke="#06F" d="M85.27 72.509a7.457 7.457 0 0 1 7.09 7.691v.036a7.45 7.45 0 0 1-7.09 7.725 7.414 7.414 0 0 1-7.054-7.723l.001-.02v-.02a7.414 7.414 0 0 1 7.053-7.69Zm-2.524-10.88.011.007a1.74 1.74 0 0 1 .887 1.762 1.7 1.7 0 0 1-.233.656l-.004.008L70.32 86.706a1.81 1.81 0 0 1-1.552.89h-.02c-.3.013-.598-.063-.854-.22l-.014-.008a1.773 1.773 0 0 1-.738-2.273l.08-.156 13.09-22.649.003-.003a1.77 1.77 0 0 1 1.772-.882c.232.03.457.107.66.224Zm2.466 14.427a3.87 3.87 0 0 0-3.413 4.16 3.87 3.87 0 0 0 3.413 4.163l.058.006.057-.006a3.91 3.91 0 0 0 3.45-4.162 3.87 3.87 0 0 0-3.454-4.162l-.055-.006zM65.396 61.037a7.42 7.42 0 0 1 7.054 7.69v.04a7.413 7.413 0 0 1-7.054 7.723 7.452 7.452 0 0 1-7.09-7.725v-.035a7.45 7.45 0 0 1 1.977-5.306 7.46 7.46 0 0 1 5.113-2.387Zm-.051 3.547a3.875 3.875 0 0 0-3.456 4.168 3.907 3.907 0 0 0 3.45 4.155l.058.007.057-.007a3.87 3.87 0 0 0 3.413-4.161 3.83 3.83 0 0 0-3.419-4.162l-.051-.005z"/><path fill="#06F" stroke="#06F" d="M75.349 47.514a27.96 27.96 0 0 1 19.999 7.543 27.93 27.93 0 0 1 8.818 19.443 27.93 27.93 0 0 1-8.818 19.443 27.96 27.96 0 0 1-20 7.543l-.015-.001-.016.001a27.96 27.96 0 0 1-19.998-7.543A27.93 27.93 0 0 1 46.5 74.5a27.93 27.93 0 0 1 8.82-19.443 27.96 27.96 0 0 1 19.997-7.543h.032Zm-.016 3.58a24.42 24.42 0 0 0-17.445 6.48 24.4 24.4 0 0 0-7.804 16.906l-.001.02.001.02a24.4 24.4 0 0 0 7.804 16.906 24.41 24.41 0 0 0 17.445 6.478 24.41 24.41 0 0 0 17.445-6.478 24.4 24.4 0 0 0 7.805-16.906l.001-.02-.001-.02a24.4 24.4 0 0 0-7.805-16.906 24.41 24.41 0 0 0-17.445-6.48Z"/></svg>